Coordinates
version=1
nRows=5
nColumns=63
inDegrees=yes

Units are S.I. units (second, meters, Newtons, ...)
If the header above contains a line with 'inDegrees', this indicates whether rotational values are in degrees (yes) or radians (no).

endheader
time	pelvis_tilt	pelvis_list	pelvis_rotation	pelvis_tx	pelvis_ty	pelvis_tz	hip_flexion_r	hip_adduction_r	hip_rotation_r	knee_angle_r	knee_angle_r_beta	ankle_angle_r	subtalar_angle_r	mtp_angle_r	hip_flexion_l	hip_adduction_l	hip_rotation_l	knee_angle_l	knee_angle_l_beta	ankle_angle_l	subtalar_angle_l	mtp_angle_l	L5_S1_Flex_Ext	L5_S1_Lat_Bending	L5_S1_axial_rotation	L4_L5_Flex_Ext	L4_L5_Lat_Bending	L4_L5_axial_rotation	L3_L4_Flex_Ext	L3_L4_Lat_Bending	L3_L4_axial_rotation	L2_L3_Flex_Ext	L2_L3_Lat_Bending	L2_L3_axial_rotation	L1_L2_Flex_Ext	L1_L2_Lat_Bending	L1_L2_axial_rotation	L1_T12_Flex_Ext	L1_T12_Lat_Bending	L1_T12_axial_rotation	Abs_r3	Abs_r2	Abs_r1	Abs_t1	Abs_t2	neck_flexion	neck_bending	neck_rotation	arm_flex_r	arm_add_r	arm_rot_r	elbow_flex_r	pro_sup_r	wrist_flex_r	wrist_dev_r	arm_flex_l	arm_add_l	arm_rot_l	elbow_flex_l	pro_sup_l	wrist_flex_l	wrist_dev_l
      0.85000000	    -38.83768006	     10.15396829	    -73.04256893	     -0.09231665	      0.96685734	     -0.96082615	     27.80046320	    -20.64145495	    -30.30447061	     25.88460828	      0.45177164	     -2.30787816	     13.59902046	      0.00000000	     42.71217407	    -28.04708451	     38.68203435	     47.56784899	      0.83021558	     16.32580024	    -18.99938698	      0.00000000	      0.00662809	     -1.09049872	     -0.97202901	      0.01230903	     -1.45036330	     -1.03278082	      0.01088929	     -2.65143860	     -1.03278082	      0.00757525	     -2.65143860	     -0.85052538	      0.00615485	     -2.22374500	     -0.78977357	      0.00378729	     -1.68918252	     -0.72902176	      0.04734379	    -12.33593965	     -5.40613373	      0.00000000	      0.00000000	      0.57658226	      0.57051166	     -1.33027221	    -24.68302972	    -52.51574861	    -89.57573909	    110.61506472	     89.99559364	      0.00000000	      0.00000000	      2.15323654	    -65.77047038	      4.81421082	     38.60508092	     89.99559364	      0.00000000	      0.00000000
      0.86666667	    -38.95572919	     10.39898825	    -71.99946525	     -0.09029528	      0.96829524	     -0.95246788	     28.21833301	    -20.08841692	    -30.68113177	     26.41169373	      0.46097102	     -2.40700147	     13.85390268	      0.00000000	     42.44536330	    -27.92809042	     39.06065672	     46.35312819	      0.80901471	     16.47899788	    -18.90232171	      0.00000000	      0.00518261	     -1.07599776	     -1.03253258	      0.00962462	     -1.43107702	     -1.09706586	      0.00851451	     -2.61618096	     -1.09706586	      0.00592320	     -2.61618096	     -0.90346601	      0.00481257	     -2.19417464	     -0.83893272	      0.00296134	     -1.66672053	     -0.77439943	      0.03701886	    -12.17190189	     -5.74263644	      0.00000000	      0.00000000	      0.32569452	      0.57698294	     -1.38961408	    -24.34235037	    -52.43946275	    -89.54956176	    112.18552173	     89.99559364	      0.00000000	      0.00000000	      2.61906106	    -65.56082957	      4.66210073	     38.88357355	     89.99559364	      0.00000000	      0.00000000
      0.88333333	    -39.18653806	     10.90238969	    -70.88071772	     -0.08838517	      0.96862144	     -0.94681898	     28.99329449	    -19.78966747	    -33.04142989	     27.42375222	      0.47863477	     -2.78746216	     16.73986737	      0.00000000	     42.80697856	    -27.76556757	     39.32520948	     45.27648839	      0.79022380	     16.72916336	    -18.61842845	      0.00000000	      0.00598773	     -1.02437579	     -1.21620438	      0.01111982	     -1.36241980	     -1.29221715	      0.00983725	     -2.49066729	     -1.29221715	      0.00684338	     -2.49066729	     -1.06417883	      0.00556021	     -2.08890710	     -0.98816606	      0.00342139	     -1.58675809	     -0.91215329	      0.04276979	    -11.58794378	     -6.76416390	      0.00000000	      0.00000000	     -3.24248900	      0.66557526	     -1.26854482	    -23.59502687	    -52.88557327	    -89.36592079	    113.70252174	     89.99559364	      0.00000000	      0.00000000	      1.27383043	    -64.73203240	      0.84654110	     39.75590348	     89.99559364	      0.00000000	      0.00000000
      0.90000000	    -39.66544444	     11.53145180	    -69.82255968	     -0.08759081	      0.96842463	     -0.94445924	     30.65391598	    -18.72868820	    -33.24454254	     28.75178354	      0.50181329	     -2.73228302	     18.06842493	      0.00000000	     43.76257415	    -27.81952104	     39.49480316	     44.37640052	      0.77451430	     16.84337787	    -18.20886451	      0.00000000	      0.00733307	     -0.93375985	     -1.41419876	      0.01361824	     -1.24190060	     -1.50258618	      0.01204750	     -2.27034371	     -1.50258618	      0.00838097	     -2.27034371	     -1.23742391	      0.00680949	     -1.90412309	     -1.14903649	      0.00419012	     -1.44639401	     -1.06064907	      0.05237938	    -10.56287821	     -7.86534922	      0.00000000	      0.00000000	     -3.80702823	      0.66693685	     -0.45920437	    -22.46732784	    -53.65746070	    -88.96278030	    114.98379476	     89.99559364	      0.00000000	      0.00000000	      0.28040743	    -63.95367981	     -2.29860267	     41.12067048	     89.99559364	      0.00000000	      0.00000000
      0.91666667	    -40.13917460	     12.18025473	    -68.60484078	     -0.08729678	      0.96810463	     -0.94420760	     32.61279354	    -17.40602621	    -33.06279600	     29.97923626	      0.52323638	     -1.48408752	     18.68611478	      0.00000000	     44.97013694	    -27.74995082	     39.58848329	     43.51639715	      0.75950441	     16.66855908	    -17.74752705	      0.00000000	      0.00822298	     -0.84397282	     -1.59431983	      0.01527090	     -1.12248384	     -1.69396482	      0.01350954	     -2.05203550	     -1.69396482	      0.00939805	     -2.05203550	     -1.39502985	      0.00763586	     -1.72102936	     -1.29538486	      0.00469861	     -1.30731389	     -1.19573987	      0.05873595	     -9.54718928	     -8.86712860	      0.00000000	      0.00000000	     -3.87667132	      0.66628004	     -0.42077944	    -21.48330631	    -54.30202109	    -88.54091172	    116.11253036	     89.99559364	      0.00000000	      0.00000000	      1.14312840	    -63.53551037	     -2.62950057	     42.20970945	     89.99559364	      0.00000000	      0.00000000
